HIERARCHY
ROOT Hips
{
  OFFSET 3.92544 6.39728 0
  CHANNELS 6 Xposition Yposition Zposition Zrotation Xrotation Yrotation
  JOINT BN_Spine_01
  {
    OFFSET 5.06197 -0.168311 0
    CHANNELS 6 Xposition Yposition Zposition Zrotation Xrotation Yrotation
    JOINT BN_Spine_02
    {
      OFFSET 14.8952 0 0
      CHANNELS 6 Xposition Yposition Zposition Zrotation Xrotation Yrotation
      JOINT BN_Spine_03
      {
        OFFSET 14.3786 0 0
        CHANNELS 6 Xposition Yposition Zposition Zrotation Xrotation Yrotation
        JOINT BN__Neck_01
        {
          OFFSET 15.3325 0 0
          CHANNELS 6 Xposition Yposition Zposition Zrotation Xrotation Yrotation
          JOINT BN__Neck_02
          {
            OFFSET 11.0839 0 0
            CHANNELS 6 Xposition Yposition Zposition Zrotation Xrotation Yrotation
            JOINT BN__Neck_R_01
            {
              OFFSET 3.85383 1.1973 3.491
              CHANNELS 6 Xposition Yposition Zposition Zrotation Xrotation Yrotation
              End Site
              {
                OFFSET 0 0 0
              }
            }
            JOINT BN__Neck_L_01
            {
              OFFSET 3.85383 1.1973 -3.49098
              CHANNELS 6 Xposition Yposition Zposition Zrotation Xrotation Yrotation
              End Site
              {
                OFFSET 0 0 0
              }
            }
            JOINT BN_Head_01
            {
              OFFSET 9.67523 0 0
              CHANNELS 6 Xposition Yposition Zposition Zrotation Xrotation Yrotation
              JOINT BN_Mouth_01
              {
                OFFSET 1.08197 -0.588672 0
                CHANNELS 6 Xposition Yposition Zposition Zrotation Xrotation Yrotation
                JOINT BN_Tongue_01
                {
                  OFFSET 2.17792 0.065941 0
                  CHANNELS 6 Xposition Yposition Zposition Zrotation Xrotation Yrotation
                  JOINT BN_Tongue_02
                  {
                    OFFSET 3.80658 -0.000201226 0
                    CHANNELS 6 Xposition Yposition Zposition Zrotation Xrotation Yrotation
                    End Site
                    {
                      OFFSET 0 0 0
                    }
                  }
                }
              }
            }
          }
        }
      }
    }
  }
  JOINT BN_Tail_01
  {
    OFFSET 4.67587 -0.164094 0
    CHANNELS 6 Xposition Yposition Zposition Zrotation Xrotation Yrotation
    JOINT BN_Tail_02
    {
      OFFSET 13.1147 2.52724e-005 0
      CHANNELS 6 Xposition Yposition Zposition Zrotation Xrotation Yrotation
      JOINT BN_Tail_03
      {
        OFFSET 13.4995 9.10759e-005 0
        CHANNELS 6 Xposition Yposition Zposition Zrotation Xrotation Yrotation
        JOINT BN_Tail_04
        {
          OFFSET 13.2851 0 0
          CHANNELS 6 Xposition Yposition Zposition Zrotation Xrotation Yrotation
          JOINT BN_Tail_05
          {
            OFFSET 14.6528 0.000106812 0
            CHANNELS 6 Xposition Yposition Zposition Zrotation Xrotation Yrotation
            JOINT BN_Tail_06
            {
              OFFSET 13.1048 0 0
              CHANNELS 6 Xposition Yposition Zposition Zrotation Xrotation Yrotation
              JOINT BN_Tail_07
              {
                OFFSET 11.869 0.000113964 0
                CHANNELS 6 Xposition Yposition Zposition Zrotation Xrotation Yrotation
                End Site
                {
                  OFFSET 0 0 0
                }
              }
            }
          }
        }
      }
    }
  }
}
MOTION
Frames:	9
Frame Time:	0.0333333
16.2583 3.97237 1.46434e-012 5.37303 -0.0014928 6.81405e-005 5.06197 -0.168311 7.27596e-012 -0.319366 -0.422645 -9.49996 14.8952 -2.38419e-007 -1.90735e-006 17.8405 3.16209 7.61282 14.3786 -1.77636e-015 9.53674e-007 11.5876 -0.182222 1.28748 15.3325 0 -2.22045e-015 -8.3259 -4.205 2.63446 11.0839 -1.90735e-006 -5.96047e-008 -12.6862 0.578884 1.31353 5.12207 0.754473 6.10248 -87.314 -13.605 -72.5979 5.27114 1.09096 -5.36171 93.2246 -18.421 99.6847 9.67525 -3.8147e-006 -5.32907e-015 -5.18001 -0.435785 2.43451 1.08197 -0.588669 3.98584e-008 -55.6312 -1.31634e-006 -7.45585e-007 2.0423 0.287493 2.5361e-006 1.44452 0.00133085 0.0527746 2.75357 0.114749 -0.215095 7.39083 -1.76543 -9.45486 4.67587 -0.164094 7.27596e-012 178.722 2.20231 8.43786 13.1147 -4.44089e-016 1.19209e-007 -5.50897 -0.515183 1.2663 13.4995 2.38419e-007 -8.88178e-016 1.38899 6.33566 -3.58799 13.2851 -2.38419e-007 -9.53674e-007 1.69881 -1.88861 14.2419 14.6528 5.90639e-013 3.8147e-006 -1.2139 -2.3265 35.6522 13.1048 -1.19209e-007 0 0.307854 1.80534 47.1167 11.869 1.85185e-013 3.8147e-006 -8.76849 5.24709 48.4153 
17.0137 3.97237 3.613e-012 5.37303 -0.0014928 6.81405e-005 5.06197 -0.168311 7.27596e-012 -2.2322 -0.49644 -9.67505 14.8952 -2.38419e-007 -1.90735e-006 19.3281 3.03803 10.6928 14.3786 1.42109e-014 9.53674e-007 12.0353 -0.154567 -2.27338 15.3325 -3.55271e-015 -1.77636e-015 -9.97461 -4.97174 1.88733 11.0839 -1.90735e-006 -5.96047e-008 -12.4325 0.541755 1.85938 4.73809 1.21903 4.6073 -87.3141 -13.605 -72.5979 4.75465 1.33359 -3.85399 93.2246 -18.421 99.6848 9.67525 -3.8147e-006 0 -5.04635 -1.05096 2.61374 1.08197 -0.588669 3.85589e-008 -32.9238 -5.66895e-007 -4.1661e-007 2.04234 0.287472 2.53164e-006 1.44452 0.00133091 0.0527746 2.75357 0.114744 -0.215095 7.38857 -1.76232 -9.35552 4.67587 -0.164094 7.27596e-012 178.491 2.68547 13.2763 13.1147 -8.88178e-016 1.19209e-007 -5.50949 -0.530014 1.14697 13.4995 2.38419e-007 -1.77636e-015 1.81673 6.24364 -6.58743 13.2851 -2.38419e-007 -9.53674e-007 1.77478 -1.98891 11.3955 14.6528 5.96856e-013 3.8147e-006 -0.94918 -2.55262 29.6416 13.1048 -1.19209e-007 1.77636e-015 0.611159 1.25925 44.994 11.869 3.57048e-013 3.8147e-006 -8.86834 5.16555 48.5663 
17.6044 3.97237 1.68115e-012 5.37303 -0.0014928 6.81405e-005 5.06197 -0.168311 7.27596e-012 -2.94355 -0.523522 -9.66282 14.8952 -2.38419e-007 -1.90735e-006 19.1736 2.92164 11.7698 14.3786 1.06581e-014 9.53674e-007 12.4978 -0.244471 -3.71008 15.3325 -7.10543e-015 -6.66134e-016 -9.58795 -4.83842 1.43112 11.0839 -1.90735e-006 -5.96047e-008 -12.4504 0.392473 1.75611 4.28951 1.7617 2.86066 -87.3141 -13.605 -72.5979 4.15132 1.61702 -2.09271 93.2245 -18.421 99.6847 9.67525 -3.8147e-006 0 -5.37446 -1.14152 2.53402 1.08197 -0.588669 3.67432e-008 -10.6573 1.95922e-007 -1.00729e-007 2.04237 0.287467 2.52814e-006 1.44452 0.00133083 0.0527755 2.75357 0.114742 -0.215095 7.38939 -1.76571 -9.24736 4.67587 -0.164094 7.27596e-012 178.289 2.88836 17.1598 13.1147 0 1.19209e-007 -5.50133 -0.558115 2.2587 13.4995 2.38419e-007 -3.55271e-015 2.13212 6.15075 -9.14093 13.2851 -2.38419e-007 -9.53674e-007 1.88488 -2.08012 8.73564 14.6528 6.00409e-013 3.8147e-006 -0.644138 -2.79966 24.2257 13.1048 -1.19209e-007 0 0.856938 0.859016 42.181 11.869 -4.84057e-013 3.8147e-006 -9.07625 5.36921 47.9338 
18.0655 3.97237 4.28549e-012 5.37303 -0.0014928 6.81405e-005 5.06197 -0.168311 7.27596e-012 -3.56601 -0.538955 -9.62201 14.8952 -2.38419e-007 -1.90735e-006 18.8129 2.82249 12.7451 14.3786 7.10543e-015 9.53674e-007 12.9831 -0.485838 -4.94789 15.3325 0 -1.33227e-015 -8.44347 -4.46635 0.96511 11.0839 -1.90735e-006 -5.96047e-008 -12.5291 0.0637378 1.4706 3.90995 2.22088 1.38278 -87.314 -13.605 -72.5979 3.64078 1.85684 -0.602439 93.2246 -18.4209 99.6847 9.67525 -3.8147e-006 -8.88179e-016 -6.29604 -1.22364 2.31117 1.08197 -0.588669 3.45064e-008 -0.433673 -1.40573e-009 9.00648e-009 2.04242 0.28746 2.53018e-006 1.44452 0.00133079 0.0527754 2.75357 0.114742 -0.215095 7.38708 -1.76516 -9.1349 4.67587 -0.164094 7.27596e-012 178.15 2.93859 20.0604 13.1147 -1.77636e-015 1.19209e-007 -5.48996 -0.596174 4.28165 13.4995 2.38419e-007 3.55271e-015 2.2925 6.09132 -10.7272 13.2851 -2.38419e-007 -9.53674e-007 2.06973 -2.14028 5.79587 14.6528 6.02185e-013 3.8147e-006 -0.21252 -3.18528 19.1005 13.1048 -1.19209e-007 0 1.00208 0.660563 38.793 11.869 -2.98428e-013 3.8147e-006 -9.18323 5.7384 46.3502 
18.4106 3.97237 3.30546e-012 5.37303 -0.0014928 6.81405e-005 5.06197 -0.168311 7.27596e-012 -4.10085 -0.550209 -9.53372 14.8952 -2.38419e-007 -1.90735e-006 18.2903 2.7368 13.6222 14.3786 8.88179e-015 9.53674e-007 13.4744 -0.853423 -6.02883 15.3325 -3.55271e-015 -3.10862e-015 -6.68423 -3.89762 0.492349 11.0839 -1.90735e-006 -5.96047e-008 -12.6886 -0.410061 1.03711 3.7508 2.41344 0.763023 -87.314 -13.605 -72.5979 3.4267 1.9574 0.0225068 93.2246 -18.421 99.6847 9.67525 -3.8147e-006 -2.88658e-015 -7.68856 -1.29662 1.96654 1.08197 -0.588669 3.1799e-008 -0.437182 -1.34056e-008 1.09933e-008 2.04244 0.287449 2.53156e-006 1.44452 0.00133082 0.0527752 2.75358 0.114737 -0.215095 7.3883 -1.76465 -9.01766 4.67587 -0.164094 7.27596e-012 178.026 3.03546 22.2225 13.1147 -8.88178e-016 1.19209e-007 -5.48117 -0.6472 6.66304 13.4995 2.38419e-007 -5.32907e-015 2.32062 6.07958 -11.0483 13.2851 -2.38419e-007 -9.53674e-007 2.27942 -2.1712 2.52687 14.6528 6.06626e-013 3.8147e-006 0.299299 -3.77251 13.5493 13.1048 -1.19209e-007 -1.77636e-015 1.06748 0.534633 35.034 11.869 -2.08722e-013 3.8147e-006 -9.02939 6.03538 43.9712 
18.6499 3.97237 2.72901e-012 5.37303 -0.0014928 6.81405e-005 5.06197 -0.168311 7.27596e-012 -4.53847 -0.557486 -9.3949 14.8952 -2.38419e-007 -1.90735e-006 17.6677 2.65535 14.3727 14.3786 1.42109e-014 9.53674e-007 13.9434 -1.29726 -6.96329 15.3325 -1.06581e-014 -8.88179e-016 -4.53745 -3.21522 0.047649 11.0839 -1.90735e-006 -5.96047e-008 -12.9458 -0.979826 0.508304 3.75106 2.41312 0.764062 -87.3141 -13.605 -72.5979 3.42706 1.95724 0.0214559 93.2246 -18.421 99.6847 9.67525 -3.8147e-006 1.9984e-015 -9.37317 -1.35785 1.53803 1.08197 -0.588669 2.86731e-008 -0.440645 -2.63896e-008 1.33254e-008 2.04248 0.287442 2.53315e-006 1.44452 0.00133085 0.0527747 2.75357 0.114739 -0.215095 7.38616 -1.76343 -8.89591 4.67587 -0.164094 7.27596e-012 177.932 3.14932 23.564 13.1147 8.88178e-016 1.19209e-007 -5.47671 -0.70597 9.13831 13.4995 2.38419e-007 3.55271e-015 2.22787 6.11183 -10.2881 13.2851 -2.38419e-007 -9.53674e-007 2.49489 -2.19104 -0.694005 14.6528 6.12843e-013 3.8147e-006 0.743813 -4.44341 8.03607 13.1048 -1.19209e-007 0 1.12121 0.471537 31.0821 11.869 -1.7053e-013 3.8147e-006 -8.70852 6.26542 40.975 
18.8077 3.97237 2.28237e-012 5.37303 -0.0014928 6.81405e-005 5.06197 -0.168311 7.27596e-012 -4.90223 -0.561352 -9.18035 14.8952 -2.38419e-007 -1.90735e-006 16.9773 2.56567 15.0271 14.3786 1.33227e-014 9.53674e-007 14.4055 -1.7946 -7.81419 15.3325 -3.55271e-015 -5.55112e-016 -2.10336 -2.44177 -0.37371 11.0839 -1.90735e-006 -5.96047e-008 -13.3253 -1.60884 -0.0928708 3.75133 2.4128 0.765113 -87.3141 -13.605 -72.5979 3.42744 1.95707 0.020397 93.2246 -18.421 99.6848 9.67525 -3.8147e-006 0 -11.2747 -1.40949 1.0347 1.08197 -0.588669 2.50968e-008 -0.444142 -3.96657e-008 1.60345e-008 2.04251 0.287432 2.53496e-006 1.44452 0.0013309 0.0527747 2.75358 0.114742 -0.215095 7.38736 -1.76551 -8.76569 4.67587 -0.164094 7.27596e-012 177.882 3.25745 24.1319 13.1147 7.10543e-015 1.19209e-007 -5.47806 -0.761367 11.5828 13.4995 2.38419e-007 -1.77636e-015 2.04448 6.1736 -8.66599 13.2851 -2.38419e-007 -9.53674e-007 2.69677 -2.21878 -3.70263 14.6528 6.25278e-013 3.8147e-006 1.05882 -5.1158 2.69414 13.1048 -1.19209e-007 0 1.15962 0.413778 26.8812 11.869 -1.42997e-013 3.8147e-006 -8.24188 6.44712 37.3801 
18.8996 3.97237 3.85175e-013 5.37303 -0.0014928 6.81405e-005 5.06197 -0.168311 7.27596e-012 -5.19721 -0.565182 -8.88421 14.8952 -2.38419e-007 -1.90735e-006 16.2655 2.46354 15.5793 14.3786 9.76996e-015 9.53674e-007 14.8514 -2.31373 -8.61909 15.3325 -1.42109e-014 -2.88658e-015 0.443293 -1.639 -0.766837 11.0839 -1.90735e-006 -5.96047e-008 -13.8571 -2.26183 -0.724042 3.75162 2.41245 0.766227 -87.314 -13.605 -72.5979 3.42783 1.95689 0.019272 93.2246 -18.421 99.6847 9.67525 -3.8147e-006 1.33227e-015 -13.259 -1.45757 0.476639 1.08197 -0.588669 2.10688e-008 -0.451239 -5.29537e-008 1.91871e-008 2.04255 0.287421 2.537e-006 1.44452 0.00133094 0.0527748 2.75356 0.114742 -0.215095 7.3854 -1.76364 -8.63091 4.67587 -0.164094 7.27596e-012 177.89 3.3293 23.9757 13.1147 4.44089e-016 1.19209e-007 -5.48446 -0.810286 13.8034 13.4995 2.38419e-007 -3.55271e-015 1.78735 6.24915 -6.47117 13.2851 -2.38419e-007 -9.53674e-007 2.85962 -2.27167 -6.2051 14.6528 6.24389e-013 3.8147e-006 1.20156 -5.68448 -2.15044 13.1048 -1.19209e-007 -3.55271e-015 1.21635 0.322781 22.4955 11.869 -1.28786e-013 3.8147e-006 -7.69721 6.58991 33.2987 
18.9413 3.97237 4.46781e-012 5.37303 -0.0014928 6.81405e-005 5.06197 -0.168311 7.27596e-012 -5.41706 -0.573107 -8.50054 14.8952 -2.38419e-007 -1.90735e-006 15.6067 2.34157 16.021 14.3786 8.88179e-015 9.53674e-007 15.2642 -2.80267 -9.40225 15.3325 3.55271e-015 -2.88658e-015 2.87722 -0.874455 -1.10802 11.0839 -1.90735e-006 -5.96047e-008 -14.528 -2.87967 -1.33695 3.75323 2.41049 0.772555 -87.314 -13.605 -72.5979 3.42999 1.95586 0.0128913 93.2246 -18.421 99.6847 9.67525 -3.8147e-006 1.77636e-015 -15.1472 -1.49113 -0.088895 1.08197 -0.588669 1.68445e-008 -0.461628 -6.53521e-008 2.2666e-008 2.04258 0.287414 2.53912e-006 1.44452 0.00133097 0.0527746 2.75357 0.114742 -0.215095 7.38671 -1.76525 -8.49504 4.67587 -0.164094 7.27596e-012 177.96 3.33052 23.2491 13.1147 -3.55271e-015 1.19209e-007 -5.49406 -0.844631 15.5497 13.4995 2.38419e-007 -3.55271e-015 1.50415 6.31857 -4.12329 13.2851 -2.38419e-007 -9.53674e-007 2.96137 -2.36765 -7.87755 14.6528 6.27054e-013 3.8147e-006 1.17901 -6.05774 -6.08 13.1048 -1.19209e-007 0 1.28335 0.169153 18.113 11.869 -1.19016e-013 3.8147e-006 -7.13834 6.71881 28.9837 
